<?xml version="1.0" encoding="UTF-8"?>
<svg width="14px" height="11px" viewBox="0 0 14 11" version="1.1" xmlns="http://www.w3.org/2000/svg" xmlns:xlink="http://www.w3.org/1999/xlink">
    <title>Combined Shape</title>
    <g id="icons" stroke="none" stroke-width="1" fill="none" fill-rule="evenodd">
        <path d="M10.2080546,0.500354401 C11.0975865,0.486728707 11.8827683,0.868108974 12.4636646,1.41808544 C13.1059179,2.0261531 13.511441,2.84554958 13.4997646,3.58964608 C13.4777644,4.99163861 12.7294672,6.21338458 11.7717438,7.22591267 C9.99551766,9.10378133 7.4198691,10.3588911 7.08151677,10.4902029 C6.4102649,10.1965146 6.16019261,10.0721996 5.87954875,9.92114328 C5.45479641,9.69252065 4.95954936,9.40362313 4.44366462,9.0591102 C3.69761012,8.56088761 2.90715948,7.94603137 2.22761664,7.22734425 C1.27020145,6.21477827 0.52213561,4.99284685 0.500234649,3.59043948 C0.48860837,2.84596165 0.892145933,2.02594109 1.5317283,1.41747956 C2.10930474,0.868006878 2.88992892,0.486739558 3.77445194,0.50035392 C4.493093,0.511415068 5.07646221,0.727734918 5.51330706,1.17350158 C5.97911772,1.64882563 6.27673519,2.36293497 6.43748082,3.29755724 L6.43748082,3.29755724 L6.83721998,5.62175794 L7.41500747,3.33530612 C7.65261267,2.39504202 7.96654418,1.66530949 8.44787295,1.17978588 C8.89344402,0.73033159 9.48366395,0.511450488 10.2080546,0.500354401 Z" id="Combined-Shape" stroke="#FD4D3F" fill="#FD4D3F"></path>
    </g>
</svg>