<?xml version="1.0" encoding="UTF-8"?>
<svg width="16px" height="11px" viewBox="0 0 16 11" version="1.1" xmlns="http://www.w3.org/2000/svg" xmlns:xlink="http://www.w3.org/1999/xlink">
    <title>Combined Shape Copy</title>
    <g id="icons" stroke="none" stroke-width="1" fill="none" fill-rule="evenodd">
        <path d="M11.620615,0.542514329 L11.8186272,0.544739438 C12.716843,0.579223144 13.4891679,1.00879334 14.046766,1.59797177 C14.6643789,2.2505641 15.0312391,3.10502213 14.9808737,3.86005211 C14.8861176,5.28054613 14.0691958,6.47931328 13.051547,7.45420263 C12.3298882,8.14553891 11.5018998,8.72568872 10.724744,9.19000886 C10.1872413,9.51114571 9.67345694,9.77699913 9.23392119,9.98552795 C8.94567096,10.1222824 8.68945669,10.2343266 8.4795257,10.3209971 C8.13953099,10.3761603 8.30855198,9.57303754 8.30855198,9.57303754 C8.37838705,8.77348972 8.39107692,8.37747571 8.41438366,7.90990821 C8.41583025,7.8808875 8.61497521,7.6323318 8.76807511,7.36452701 C9.08742384,6.80591715 9.34047076,6.21353053 9.33692582,6.15278909 C8.95048907,5.22670932 8.56654127,4.53890505 8.57833595,4.4120695 C8.58488989,4.34217549 8.82635435,4.10669813 9.15937264,3.68328604 C9.36297725,2.4159726 9.61731246,1.65516006 10.0705125,1.16394582 C10.4898797,0.709402324 11.0788151,0.516337061 11.8186272,0.544739438 Z M3.66669256,0.539504037 C4.42283,0.510474863 5.04287778,0.713781689 5.51592095,1.17541957 C5.99591128,1.64383711 6.32316865,2.35468096 6.52547252,3.29079273 C6.16032196,4.01867548 5.99253374,4.41496117 5.98392241,4.47320921 C5.97222989,4.55229889 6.1526362,5.11881187 6.40728394,5.67680496 C6.52082234,5.92559428 6.72685126,6.18143704 6.72064477,6.21511157 C6.67524857,6.4614177 6.48685155,6.78286904 6.33462774,7.0624691 C6.1686859,7.36726601 6.03711398,7.63892343 6.00713921,7.79295672 C5.9942273,7.85930798 6.36062514,9.13010878 6.66096837,10.1013517 C5.84003089,9.76784354 5.32332799,9.50226259 4.78278802,9.18140034 C4.00126951,8.71749424 3.16866767,8.13777583 2.44305588,7.44677429 C1.42029301,6.47279518 0.599165582,5.27498745 0.504430983,3.85481749 C0.454065571,3.09978767 0.820927509,2.24532989 1.43854276,1.59273763 C1.99614361,1.00355853 2.76847243,0.573987963 3.66669256,0.539504037 Z" id="Combined-Shape-Copy" stroke="#FD4D3F" fill="#FD4D3F"></path>
    </g>
</svg>